<?xml version="1.0" encoding="utf-8"?>
<!-- Generator: Adobe Illustrator 16.0.0, SVG Export Plug-In . SVG Version: 6.00 Build 0)  -->
<!DOCTYPE svg PUBLIC "-//W3C//DTD SVG 1.1//EN" "http://www.w3.org/Graphics/SVG/1.1/DTD/svg11.dtd">
<svg version="1.1" id="Layer_1" xmlns="http://www.w3.org/2000/svg" xmlns:xlink="http://www.w3.org/1999/xlink" x="0px" y="0px"
	 width="40px" height="37px" viewBox="0 0 40 37" enable-background="new 0 0 40 37" xml:space="preserve">
<g>
	<path fill="#FFFFFF" d="M40,11.013C40,5.14,35.213,0.375,29.309,0.375c-3.994,0-7.475,2.188-9.309,5.422
		c-1.834-3.234-5.312-5.422-9.308-5.422C4.789,0.375,0,5.14,0,11.013c0,2.722,1.034,5.194,2.725,7.078
		c-0.002,0-0.009,0.005-0.009,0.005l14.616,17.231c1.469,1.731,3.872,1.731,5.338,0l5.303-6.248l-3.856-3.933
		c-1.169,0.734-2.537,1.158-4.017,1.158c-4.22,0-7.649-3.494-7.649-7.794c0-4.312,3.43-7.799,7.649-7.799
		c4.231,0,7.659,3.488,7.659,7.799c0,1.58-0.465,3.044-1.25,4.269l3.651,3.721l7.132-8.404l-0.012-0.005
		C38.965,16.208,40,13.733,40,11.013z"/>
	<path fill="#FFFFFF" d="M14.992,18.51c0,2.873,2.281,5.203,5.105,5.203c2.821,0,5.114-2.331,5.114-5.203
		c0-2.88-2.293-5.216-5.114-5.216C17.273,13.294,14.992,15.63,14.992,18.51z"/>
</g>
</svg>
