<?xml version="1.0" encoding="utf-8"?>
<!-- Generator: Adobe Illustrator 16.0.0, SVG Export Plug-In . SVG Version: 6.00 Build 0)  -->
<!DOCTYPE svg PUBLIC "-//W3C//DTD SVG 1.1//EN" "http://www.w3.org/Graphics/SVG/1.1/DTD/svg11.dtd">
<svg version="1.1" id="Layer_1" xmlns="http://www.w3.org/2000/svg" xmlns:xlink="http://www.w3.org/1999/xlink" x="0px" y="0px"
	 width="211px" height="53px" viewBox="0 0 211 53" enable-background="new 0 0 211 53" xml:space="preserve">
<g>
	<g>
		<g>
			<path fill="#87BFF2" d="M210.098,20.653c0-5.156-4.207-9.339-9.39-9.339c-3.503,0-6.562,1.92-8.172,4.761
				c-1.608-2.839-4.662-4.761-8.171-4.761c-5.182,0-9.385,4.184-9.385,9.339c0,2.39,0.901,4.56,2.388,6.213
				c-0.002,0-0.009,0.004-0.009,0.004l12.828,15.125c1.289,1.521,3.398,1.521,4.687,0l4.653-5.486l-3.385-3.454
				c-1.021,0.643-2.225,1.016-3.524,1.016c-3.707,0-6.714-3.062-6.714-6.842c0-3.788,3.007-6.847,6.714-6.847
				c3.713,0,6.722,3.059,6.722,6.847c0,1.389-0.402,2.674-1.096,3.75l3.205,3.267l6.26-7.376l-0.01-0.004
				C209.188,25.212,210.098,23.041,210.098,20.653z"/>
			<path fill="#87BFF2" d="M188.145,27.232c0,2.521,2.006,4.565,4.481,4.565c2.478,0,4.493-2.046,4.493-4.565
				c0-2.527-2.012-4.582-4.493-4.582C190.148,22.655,188.145,24.705,188.145,27.232z"/>
		</g>
		<g>
			<path fill="#6B97BF" d="M45.314,6.654c2.813,0.324,3.058,0.106,3.058-3.114c0-3.227-0.171-3.357-3.088-3.088
				c-1.35,0.124-1.941,0.688-1.798,2.058c0.07,0.691,0.078,1.403-0.002,2.091C43.325,6.01,44.026,6.505,45.314,6.654z"/>
			<path fill="#6B97BF" d="M73.782,11.837c-4.703-0.428-9.222,0.457-13.45,2.624c-1.245,0.639-1.82,1.575-1.814,3.045
				c0.048,10.811,0.093,21.622-0.023,32.432c-0.024,2.379,1.384,2.057,2.823,2.196c1.803,0.173,1.928-0.903,1.913-2.261
				c-0.037-3.171-0.013-6.342-0.013-9.798c0.777,0.327,1.333,0.587,1.906,0.797c2.953,1.084,5.968,1.735,9.139,1.306
				c3.311-0.449,5.554-2.328,5.677-5.65c0.228-6.219,0.273-12.461-0.023-18.672C79.721,13.983,77.68,12.19,73.782,11.837z
				 M75.392,33.178c-0.085,3.682-1.377,4.832-5.077,4.73c-0.445-0.012-0.892-0.016-1.334-0.09c-5.271-0.875-5.768-1.465-5.768-6.771
				c0-1.398,0-2.798,0-4.198c0-2.419,0.058-4.833-0.022-7.249c-0.041-1.217,0.395-1.993,1.527-2.284
				c2.016-0.521,4.037-1.128,6.094-1.388c2.244-0.282,3.738,0.93,4.29,3.171c0.233,0.973,0.35,2.007,0.352,3.008
				C75.474,25.802,75.48,29.491,75.392,33.178z"/>
			<path fill="#6B97BF" d="M52.652,37.665c-3.214,0.614-4.322-0.332-4.331-3.642c-0.012-6.734-0.023-13.469,0.017-20.205
				c0.008-1.411-0.392-2.257-1.942-2.034c-1.239,0.179-2.894-0.414-2.79,1.983c0.164,3.742,0.043,7.495,0.049,11.243
				c0,3.75-0.08,7.5,0.019,11.246c0.14,5.162,5.925,8.152,10.314,5.392c1.29-0.811,0.863-1.928,0.559-3.047
				C54.254,37.529,53.608,37.48,52.652,37.665z"/>
			<path fill="#6B97BF" d="M37.893,37.605c-3.654,0.584-4.526-0.199-4.539-3.972c-0.021-5.084-0.004-10.172-0.006-15.258
				c0-5.407,0.021-10.81-0.021-16.214c-0.01-0.637-0.284-1.776-0.563-1.818c-1.153-0.169-2.411-0.192-3.509,0.13
				c-0.414,0.121-0.711,1.333-0.716,2.051c-0.045,9.663-0.04,19.328-0.021,28.993c0.004,1.774,0.004,3.565,0.216,5.326
				c0.573,4.786,6.145,7.354,10.313,4.809c1.222-0.746,0.917-1.778,0.612-2.854C39.397,37.877,38.981,37.434,37.893,37.605z"/>
			<path fill="#6B97BF" d="M11.878,11.821c-2.334,0.352-4.598,1.171-7.04,1.816c0-3.785-0.025-7.644,0.021-11.5
				c0.016-1.37-0.284-2.25-1.902-2.06c-1.393,0.164-2.9-0.205-2.883,2.164C0.166,14.257,0.145,26.274,0.086,38.29
				c-0.014,1.722,0.682,2.569,2.232,2.989c4.105,1.115,8.297,1.375,12.465,0.752c4.331-0.645,6.622-3.051,6.846-7.37
				c0.258-4.938,0.245-9.903,0.062-14.846C21.455,13.631,18.044,10.888,11.878,11.821z M17.03,33.219
				c-0.087,3.319-1.679,4.908-4.954,5.004c-1.95,0.059-3.917-0.252-5.87-0.438c-1.078-0.104-1.421-0.729-1.388-1.82
				c0.078-2.667,0.021-5.337,0.021-8.008c0-2.731-0.105-5.47,0.065-8.191c0.053-0.814,0.727-2.022,1.419-2.29
				c1.927-0.748,3.977-1.34,6.024-1.544c2.722-0.269,4.552,1.404,4.639,4.146C17.127,24.454,17.147,28.844,17.03,33.219z"/>
			<path fill="#6B97BF" d="M102.46,11.841c-4.705-0.438-9.222,0.453-13.455,2.601c-1.237,0.627-1.851,1.544-1.843,3.027
				c0.042,10.876,0.072,21.748-0.021,32.622c-0.021,2.319,1.453,1.886,2.778,2.037c1.572,0.179,1.973-0.614,1.951-2.026
				c-0.053-3.24-0.019-6.479-0.019-10.008c3.732,1.584,7.235,2.59,11.007,2.092c3.335-0.438,5.576-2.295,5.705-5.615
				c0.239-6.219,0.277-12.461-0.014-18.673C108.373,14.01,106.335,12.202,102.46,11.841z M104.021,33.516
				c-0.066,3.239-1.42,4.426-4.645,4.4c-0.381-0.004-0.793,0.07-1.14-0.044c-2.018-0.685-4.331-1.024-5.906-2.281
				c-0.83-0.661-0.4-2.946-0.47-4.497c-0.059-1.396-0.013-2.798-0.013-4.202c0-2.419,0.056-4.831-0.024-7.249
				c-0.037-1.193,0.342-2.018,1.488-2.312c2.079-0.529,4.162-1.153,6.282-1.396c2.168-0.25,3.565,0.967,4.132,3.129
				c0.179,0.67,0.301,1.374,0.305,2.062C104.062,25.253,104.115,29.387,104.021,33.516z"/>
			<path fill="#6B97BF" d="M163.064,39.807c-2.195-3.789-4.396-7.59-6.762-11.279c-0.855-1.338-0.755-2.284,0.036-3.564
				c2.238-3.622,4.354-7.314,6.479-11.003c0.965-1.675,0.543-2.326-1.338-2.308c-1.783,0.018-3.047,0.61-3.918,2.36
				c-1.582,3.159-3.431,6.181-5.328,9.546c-1.887-3.4-3.709-6.504-5.348-9.702c-0.732-1.43-1.734-2.157-3.261-2.125
				c-0.778,0.016-1.558,0.277-2.338,0.429c0.19,0.707,0.261,1.49,0.608,2.106c2.184,3.802,4.479,7.54,6.611,11.371
				c0.336,0.602,0.311,1.702-0.021,2.33c-1.143,2.189-2.496,4.277-3.77,6.403c-1.14,1.905-2.354,3.776-3.371,5.75
				c-0.269,0.524-0.166,1.78,0.189,1.993c1.387,0.83,4.047-0.192,4.88-1.678c1.869-3.316,3.729-6.641,5.802-10.326
				c1.996,3.481,3.904,6.619,5.604,9.863c0.848,1.618,1.965,2.424,3.738,2.295c0.67-0.051,1.33-0.228,1.994-0.351
				C163.4,41.208,163.41,40.408,163.064,39.807z"/>
			<path fill="#6B97BF" d="M134.303,13.421c-0.695-0.512-1.57-1.029-2.391-1.078c-3.334-0.196-6.717-0.555-10.008-0.202
				c-3.711,0.396-6.354,2.796-6.508,6.62c-0.217,5.437-0.158,10.922,0.367,16.336c0.354,3.713,2.926,6.068,6.771,6.769
				c4.448,0.806,8.856,0.493,13.225-0.49c0.478-0.108,1.093-0.825,1.159-1.332c0.318-2.271-0.289-2.749-2.654-2.479
				c-2.517,0.279-5.048,0.715-7.562,0.662c-4.806-0.104-7.188-2.883-6.859-7.934c1.308,0,2.509,0.107,3.691-0.021
				c2.893-0.316,5.809-0.582,8.646-1.178c2.985-0.625,4.764-2.638,4.939-5.749C137.322,19.734,137.786,15.978,134.303,13.421z
				 M128.695,26.01c-2.857,0.46-5.781,0.528-8.938,0.793c0-2.523-0.104-4.618,0.026-6.696c0.157-2.415,1.584-4.068,3.979-4.456
				c1.598-0.262,3.312-0.285,4.908-0.021c2.885,0.479,3.947,2.03,3.955,5.12C132.632,24.177,131.787,25.513,128.695,26.01z"/>
		</g>
	</g>
	<path fill="#6B97BF" d="M144.148,46.23c0,0.104-0.021,0.217-0.055,0.328c-0.031,0.106-0.088,0.213-0.152,0.311
		c-0.067,0.096-0.156,0.181-0.264,0.253c-0.107,0.071-0.232,0.128-0.381,0.167v0.023c0.131,0.021,0.251,0.06,0.367,0.108
		c0.119,0.052,0.225,0.123,0.312,0.212c0.092,0.09,0.162,0.198,0.221,0.328c0.056,0.128,0.082,0.279,0.082,0.455
		c0,0.229-0.047,0.432-0.146,0.602c-0.096,0.17-0.222,0.31-0.379,0.414c-0.154,0.107-0.334,0.188-0.535,0.237
		c-0.199,0.052-0.406,0.075-0.615,0.075c-0.072,0-0.158,0-0.256,0c-0.102,0-0.203-0.006-0.312-0.012
		c-0.104-0.004-0.216-0.016-0.32-0.022c-0.104-0.013-0.2-0.024-0.282-0.049v-4.425c0.159-0.024,0.344-0.047,0.555-0.062
		c0.209-0.021,0.438-0.022,0.688-0.022c0.165,0,0.334,0.016,0.51,0.039c0.176,0.027,0.33,0.082,0.475,0.16
		c0.145,0.08,0.259,0.188,0.352,0.332C144.104,45.826,144.148,46.007,144.148,46.23z M142.305,47.18c0.072,0,0.16-0.002,0.266-0.006
		c0.103-0.006,0.188-0.012,0.258-0.02c0.104-0.035,0.197-0.078,0.285-0.127c0.092-0.051,0.173-0.106,0.24-0.176
		c0.071-0.062,0.127-0.145,0.168-0.229c0.041-0.088,0.062-0.187,0.062-0.286c0-0.143-0.027-0.258-0.082-0.354
		c-0.052-0.09-0.124-0.164-0.216-0.221c-0.089-0.057-0.188-0.096-0.31-0.119c-0.113-0.021-0.23-0.035-0.353-0.035
		c-0.142,0-0.271,0.004-0.39,0.012c-0.115,0.006-0.207,0.02-0.266,0.025v1.529L142.305,47.18L142.305,47.18z M142.658,49.286
		c0.136,0,0.268-0.019,0.396-0.05c0.127-0.032,0.238-0.082,0.34-0.152c0.099-0.07,0.178-0.156,0.231-0.262
		c0.062-0.102,0.089-0.225,0.089-0.366c0-0.175-0.035-0.313-0.104-0.423c-0.071-0.105-0.162-0.188-0.275-0.252
		c-0.113-0.059-0.24-0.1-0.383-0.119c-0.145-0.021-0.283-0.033-0.424-0.033h-0.559v1.611c0.027,0.011,0.069,0.017,0.127,0.021
		c0.057,0.004,0.113,0.01,0.182,0.016c0.062,0.004,0.13,0.008,0.195,0.01C142.545,49.286,142.605,49.286,142.658,49.286z"/>
	<path fill="#6B97BF" d="M147.975,45.322h2.445v0.479h-1.913v1.471h1.753v0.478h-1.753v1.599h1.944v0.477h-2.477V45.322
		L147.975,45.322z"/>
	<path fill="#6B97BF" d="M157.236,45.799h-1.398v4.018h-0.533v-4.018h-1.402v-0.477h3.336L157.236,45.799L157.236,45.799z"/>
	<path fill="#6B97BF" d="M162.725,48.57h-1.646l-0.447,1.246H160.1l1.699-4.565h0.245l1.709,4.565h-0.563L162.725,48.57z
		 M161.25,48.111h1.314l-0.498-1.366l-0.158-0.685H161.9l-0.159,0.692L161.25,48.111z"/>
</g>
</svg>
