<?xml version="1.0" encoding="utf-8"?>
<!-- Generator: Adobe Illustrator 16.0.0, SVG Export Plug-In . SVG Version: 6.00 Build 0)  -->
<!DOCTYPE svg PUBLIC "-//W3C//DTD SVG 1.1//EN" "http://www.w3.org/Graphics/SVG/1.1/DTD/svg11.dtd">
<svg version="1.1" id="Layer_1" xmlns="http://www.w3.org/2000/svg" xmlns:xlink="http://www.w3.org/1999/xlink" x="0px" y="0px"
	 width="211.148px" height="53px" viewBox="0 0 211.148 53" enable-background="new 0 0 211.148 53" xml:space="preserve">
<g>
	<g>
		<path fill="#FFFFFF" d="M211.149,20.711c0-5.184-4.225-9.389-9.436-9.389c-3.525,0-6.597,1.931-8.215,4.785
			c-1.618-2.854-4.688-4.785-8.215-4.785c-5.209,0-9.437,4.205-9.437,9.389c0,2.402,0.912,4.584,2.404,6.246
			c-0.003,0-0.009,0.004-0.009,0.004l12.897,15.206c1.297,1.528,3.418,1.528,4.711,0l4.679-5.515l-3.402-3.469
			c-1.028,0.646-2.239,1.021-3.545,1.021c-3.726,0-6.75-3.082-6.75-6.879c0-3.805,3.024-6.883,6.75-6.883
			c3.733,0,6.76,3.078,6.76,6.883c0,1.396-0.409,2.687-1.104,3.769l3.224,3.283l6.293-7.417l-0.01-0.004
			C210.236,25.295,211.149,23.111,211.149,20.711z"/>
		<path fill="#FFFFFF" d="M189.08,27.326c0,2.535,2.015,4.592,4.506,4.592c2.49,0,4.514-2.057,4.514-4.592
			c0-2.541-2.021-4.603-4.514-4.603C191.094,22.724,189.08,24.785,189.08,27.326z"/>
	</g>
	<g>
		<path fill="#FFFFFF" d="M45.484,6.637c2.828,0.326,3.074,0.107,3.074-3.131c0-3.244-0.172-3.375-3.103-3.105
			c-1.36,0.125-1.951,0.693-1.808,2.07c0.072,0.695,0.078,1.41-0.002,2.102C43.484,5.99,44.189,6.486,45.484,6.637z"/>
		<path fill="#FFFFFF" d="M74.105,11.848c-4.726-0.43-9.269,0.459-13.522,2.637c-1.252,0.643-1.83,1.584-1.824,3.062
			c0.046,10.869,0.091,21.738-0.026,32.605c-0.024,2.393,1.392,2.07,2.838,2.209c1.813,0.174,1.938-0.908,1.923-2.273
			c-0.037-3.188-0.013-6.375-0.013-9.85c0.781,0.328,1.34,0.59,1.916,0.801c2.969,1.09,6,1.744,9.188,1.312
			c3.328-0.451,5.584-2.34,5.707-5.682c0.229-6.252,0.274-12.529-0.026-18.775C80.076,14.006,78.023,12.203,74.105,11.848z
			 M75.723,33.305c-0.086,3.701-1.382,4.857-5.104,4.756c-0.447-0.012-0.899-0.016-1.341-0.09c-5.299-0.881-5.799-1.473-5.799-6.809
			c0-1.406,0-2.812,0-4.221c0-2.428,0.058-4.859-0.022-7.287c-0.041-1.219,0.397-2.004,1.535-2.297
			c2.026-0.523,4.059-1.129,6.127-1.391c2.256-0.283,3.758,0.93,4.31,3.188c0.237,0.98,0.352,2.016,0.356,3.027
			C75.805,25.889,75.811,29.598,75.723,33.305z"/>
		<path fill="#FFFFFF" d="M52.861,37.812c-3.231,0.621-4.346-0.334-4.353-3.66c-0.012-6.771-0.026-13.542,0.015-20.312
			c0.008-1.418-0.392-2.27-1.953-2.045c-1.245,0.18-2.909-0.416-2.805,1.994c0.164,3.762,0.043,7.535,0.049,11.303
			c0,3.77-0.08,7.539,0.019,11.305c0.138,5.19,5.957,8.197,10.369,5.418c1.297-0.815,0.868-1.937,0.562-3.063
			C54.471,37.68,53.822,37.629,52.861,37.812z"/>
		<path fill="#FFFFFF" d="M38.023,37.756c-3.674,0.586-4.551-0.201-4.563-3.992c-0.021-5.113-0.004-10.227-0.006-15.34
			c0-5.436,0.021-10.867-0.024-16.301c-0.007-0.641-0.285-1.785-0.566-1.828c-1.159-0.17-2.424-0.193-3.528,0.131
			c-0.416,0.121-0.715,1.34-0.72,2.061c-0.045,9.715-0.041,19.432-0.021,29.148c0.004,1.785,0.004,3.586,0.217,5.355
			c0.576,4.816,6.178,7.393,10.369,4.834c1.229-0.75,0.922-1.789,0.618-2.869C39.535,38.025,39.117,37.582,38.023,37.756z"/>
		<path fill="#FFFFFF" d="M11.869,11.832c-2.347,0.354-4.623,1.178-7.078,1.826c0-3.805-0.028-7.684,0.019-11.561
			C4.825,0.72,4.524-0.165,2.897,0.025C1.498,0.189-0.018-0.182,0,2.201c0.092,12.08,0.071,24.16,0.01,36.24
			C0,40.174,0.699,41.025,2.258,41.449c4.127,1.121,8.339,1.383,12.531,0.756c4.353-0.648,6.657-3.066,6.883-7.41
			c0.257-4.965,0.246-9.957,0.06-14.926C21.498,13.65,18.068,10.895,11.869,11.832z M17.049,33.344
			c-0.088,3.338-1.69,4.934-4.983,5.031c-1.961,0.059-3.938-0.254-5.901-0.439c-1.084-0.104-1.429-0.732-1.396-1.832
			c0.078-2.68,0.024-5.365,0.024-8.049c0-2.746-0.108-5.5,0.065-8.236c0.054-0.822,0.733-2.033,1.427-2.301
			c1.935-0.752,3.998-1.348,6.057-1.553c2.736-0.271,4.576,1.412,4.664,4.168C17.146,24.533,17.166,28.943,17.049,33.344z"/>
		<path fill="#FFFFFF" d="M102.936,11.852c-4.728-0.441-9.269,0.455-13.526,2.615c-1.244,0.631-1.861,1.553-1.854,3.043
			c0.043,10.933,0.075,21.865-0.019,32.796c-0.021,2.332,1.461,1.896,2.793,2.047c1.58,0.181,1.983-0.619,1.961-2.037
			c-0.054-3.256-0.019-6.512-0.019-10.063c3.752,1.593,7.276,2.604,11.069,2.103c3.349-0.44,5.604-2.303,5.734-5.646
			c0.241-6.252,0.28-12.529-0.013-18.775C108.881,14.033,106.832,12.215,102.936,11.852z M104.506,33.645
			c-0.069,3.254-1.428,4.449-4.67,4.422c-0.383-0.004-0.797,0.072-1.146-0.045c-2.028-0.686-4.353-1.027-5.935-2.293
			c-0.834-0.666-0.405-2.961-0.473-4.521c-0.06-1.402-0.013-2.812-0.013-4.221c0-2.43,0.056-4.859-0.024-7.287
			c-0.037-1.201,0.344-2.031,1.496-2.326c2.09-0.533,4.184-1.16,6.315-1.404c2.18-0.252,3.584,0.969,4.157,3.143
			c0.177,0.674,0.3,1.381,0.304,2.074C104.547,25.336,104.6,29.492,104.506,33.645z"/>
		<path fill="#FFFFFF" d="M163.865,39.969c-2.206-3.812-4.42-7.631-6.797-11.34c-0.86-1.346-0.758-2.299,0.037-3.586
			c2.25-3.641,4.379-7.354,6.515-11.062c0.969-1.684,0.545-2.338-1.347-2.32c-1.793,0.018-3.062,0.613-3.938,2.373
			c-1.59,3.176-3.448,6.215-5.358,9.598c-1.899-3.418-3.731-6.539-5.377-9.754c-0.736-1.438-1.744-2.168-3.277-2.137
			c-0.784,0.016-1.565,0.279-2.35,0.432c0.196,0.711,0.262,1.498,0.616,2.117c2.193,3.822,4.5,7.58,6.646,11.432
			c0.338,0.605,0.312,1.711-0.021,2.34c-1.151,2.205-2.512,4.301-3.791,6.438c-1.146,1.918-2.368,3.799-3.389,5.783
			c-0.271,0.529-0.166,1.791,0.19,2.006c1.396,0.834,4.071-0.197,4.91-1.688c1.877-3.336,3.75-6.678,5.831-10.381
			c2.005,3.5,3.923,6.652,5.63,9.916c0.853,1.627,1.975,2.434,3.76,2.305c0.672-0.049,1.336-0.23,2.004-0.352
			C164.203,41.377,164.213,40.57,163.865,39.969z"/>
		<path fill="#FFFFFF" d="M134.949,13.439c-0.699-0.514-1.578-1.035-2.402-1.084c-3.353-0.197-6.752-0.557-10.063-0.203
			c-3.729,0.398-6.389,2.811-6.543,6.656c-0.219,5.465-0.157,10.982,0.369,16.422c0.36,3.734,2.944,6.102,6.808,6.805
			c4.473,0.812,8.903,0.496,13.295-0.496c0.479-0.109,1.096-0.83,1.166-1.336c0.319-2.287-0.291-2.764-2.67-2.496
			c-2.529,0.283-5.074,0.719-7.603,0.664c-4.83-0.102-7.224-2.896-6.894-7.971c1.31,0,2.522,0.109,3.711-0.021
			c2.907-0.32,5.84-0.586,8.694-1.184c3.002-0.627,4.789-2.652,4.966-5.779C137.986,19.787,138.451,16.012,134.949,13.439z
			 M129.312,26.098c-2.873,0.463-5.81,0.531-8.985,0.797c0-2.537-0.106-4.643,0.028-6.732c0.16-2.428,1.592-4.09,4-4.482
			c1.608-0.264,3.33-0.287,4.935-0.021c2.899,0.482,3.969,2.037,3.974,5.148C133.268,24.254,132.42,25.598,129.312,26.098z"/>
	</g>
</g>
</svg>
